<svg class="animated" id="freepik_stories-maintenance" xmlns="http://www.w3.org/2000/svg" viewBox="0 0 500 500" version="1.1" xmlns:xlink="http://www.w3.org/1999/xlink" xmlns:svgjs="http://svgjs.com/svgjs"><style>svg#freepik_stories-maintenance:not(.animated) .animable {opacity: 0;}svg#freepik_stories-maintenance.animated #freepik--background-simple--inject-1--inject-39 {animation: 1s 1 forwards cubic-bezier(.36,-0.01,.5,1.38) lightSpeedLeft;animation-delay: 0s;}svg#freepik_stories-maintenance.animated #freepik--Shadow--inject-1--inject-39 {animation: 1s 1 forwards cubic-bezier(.36,-0.01,.5,1.38) slideUp;animation-delay: 0s;}svg#freepik_stories-maintenance.animated #freepik--Crane--inject-1--inject-39 {animation: 1s 1 forwards cubic-bezier(.36,-0.01,.5,1.38) zoomIn;animation-delay: 0s;}svg#freepik_stories-maintenance.animated #freepik--Device--inject-1--inject-39 {animation: 1s 1 forwards cubic-bezier(.36,-0.01,.5,1.38) fadeIn;animation-delay: 0s;}svg#freepik_stories-maintenance.animated #freepik--Tools--inject-1--inject-39 {animation: 1s 1 forwards cubic-bezier(.36,-0.01,.5,1.38) lightSpeedRight,1.5s Infinite  linear floating;animation-delay: 0s,1s;}svg#freepik_stories-maintenance.animated #freepik--Ladders--inject-1--inject-39 {animation: 1s 1 forwards cubic-bezier(.36,-0.01,.5,1.38) slideUp;animation-delay: 0s;}            @keyframes lightSpeedLeft {              from {                transform: translate3d(-50%, 0, 0) skewX(20deg);                opacity: 0;              }              60% {                transform: skewX(-10deg);                opacity: 1;              }              80% {                transform: skewX(2deg);              }              to {                opacity: 1;                transform: translate3d(0, 0, 0);              }            }                    @keyframes slideUp {                0% {                    opacity: 0;                    transform: translateY(30px);                }                100% {                    opacity: 1;                    transform: inherit;                }            }                    @keyframes zoomIn {                0% {                    opacity: 0;                    transform: scale(0.5);                }                100% {                    opacity: 1;                    transform: scale(1);                }            }                    @keyframes fadeIn {                0% {                    opacity: 0;                }                100% {                    opacity: 1;                }            }                    @keyframes lightSpeedRight {              from {                transform: translate3d(50%, 0, 0) skewX(-20deg);                opacity: 0;              }              60% {                transform: skewX(10deg);                opacity: 1;              }              80% {                transform: skewX(-2deg);              }              to {                opacity: 1;                transform: translate3d(0, 0, 0);              }            }                    @keyframes floating {                0% {                    opacity: 1;                    transform: translateY(0px);                }                50% {                    transform: translateY(-10px);                }                100% {                    opacity: 1;                    transform: translateY(0px);                }            }        </style><!--Maintenance--><g id="freepik--background-simple--inject-1--inject-39" class="animable" style="transform-origin: 245.982px 253.107px;"><path d="M441.4,270.76c2-26.75-4.24-54.7-12.64-79.6-12.47-37-36.67-74.94-77.44-83.69-23.51-5-47.43.36-67.58,13-19.39,12.17-34.5,27.88-58.33,30.93-24.1,3.08-48.83,1.84-73.06,1.84-62.29,0-112.85,65-100.21,132.71s72.22,114.65,122.78,114.65c45.43,0,82.8-27.07,126-34.34,21.4-3.6,42.88.66,64.06-4.74,24.61-6.28,47.75-21.26,61.39-42.95C435.61,303.8,440.13,287.51,441.4,270.76Z" style="fill: rgb(64, 123, 255); transform-origin: 245.982px 253.107px;" id="elxa27ixo5vfs" class="animable"></path><g id="elerj63phxqe5"><path d="M441.4,270.76c2-26.75-4.24-54.7-12.64-79.6-12.47-37-36.67-74.94-77.44-83.69-23.51-5-47.43.36-67.58,13-19.39,12.17-34.5,27.88-58.33,30.93-24.1,3.08-48.83,1.84-73.06,1.84-62.29,0-112.85,65-100.21,132.71s72.22,114.65,122.78,114.65c45.43,0,82.8-27.07,126-34.34,21.4-3.6,42.88.66,64.06-4.74,24.61-6.28,47.75-21.26,61.39-42.95C435.61,303.8,440.13,287.51,441.4,270.76Z" style="fill: rgb(255, 255, 255); opacity: 0.7; transform-origin: 245.982px 253.107px;" class="animable"></path></g></g><g id="freepik--Shadow--inject-1--inject-39" class="animable" style="transform-origin: 246.69px 417.76px;"><ellipse cx="246.69" cy="417.76" rx="194.55" ry="5.42" style="fill: rgb(46, 53, 58); transform-origin: 246.69px 417.76px;" id="eltyimrh7qfe7" class="animable"></ellipse></g><g id="freepik--Crane--inject-1--inject-39" class="animable" style="transform-origin: 357.105px 250.87px;"><polygon points="345.25 412.82 327.25 412.82 327.25 88.44 345.25 109.37 345.25 412.82" style="fill: none; stroke: rgb(46, 53, 58); stroke-linecap: round; stroke-linejoin: round; transform-origin: 336.25px 250.63px;" id="elauc8cx89srk" class="animable"></polygon><polygon points="327.42 336.44 345.08 336.44 327.42 319.37 345.08 319.37 327.42 336.44" style="fill: none; stroke: rgb(46, 53, 58); stroke-linecap: round; stroke-linejoin: round; transform-origin: 336.25px 327.905px;" id="ela2fykgl2naw" class="animable"></polygon><polygon points="327.42 318.94 345.08 318.94 327.42 301.87 345.08 301.87 327.42 318.94" style="fill: none; stroke: rgb(46, 53, 58); stroke-linecap: round; stroke-linejoin: round; transform-origin: 336.25px 310.405px;" id="elb8mgay647ce" class="animable"></polygon><polygon points="327.42 371.29 345.08 371.29 327.42 354.22 345.08 354.22 327.42 371.29" style="fill: none; stroke: rgb(46, 53, 58); stroke-linecap: round; stroke-linejoin: round; transform-origin: 336.25px 362.755px;" id="elsegybqgn3g" class="animable"></polygon><polygon points="327.42 353.79 345.08 353.79 327.42 336.72 345.08 336.72 327.42 353.79" style="fill: none; stroke: rgb(46, 53, 58); stroke-linecap: round; stroke-linejoin: round; transform-origin: 336.25px 345.255px;" id="elgelqox20wgv" class="animable"></polygon><polygon points="327.42 301.44 345.08 301.44 327.42 284.37 345.08 284.37 327.42 301.44" style="fill: none; stroke: rgb(46, 53, 58); stroke-linecap: round; stroke-linejoin: round; transform-origin: 336.25px 292.905px;" id="ellj9r9icr52j" class="animable"></polygon><polygon points="327.42 283.94 345.08 283.94 327.42 266.87 345.08 266.87 327.42 283.94" style="fill: none; stroke: rgb(46, 53, 58); stroke-linecap: round; stroke-linejoin: round; transform-origin: 336.25px 275.405px;" id="elfvggfrrqr7j" class="animable"></polygon><polygon points="327.42 266.44 345.08 266.44 327.42 249.37 345.08 249.37 327.42 266.44" style="fill: none; stroke: rgb(46, 53, 58); stroke-linecap: round; stroke-linejoin: round; transform-origin: 336.25px 257.905px;" id="elj00jbwilutg" class="animable"></polygon><polygon points="327.42 248.94 345.08 248.94 327.42 231.87 345.08 231.87 327.42 248.94" style="fill: none; stroke: rgb(46, 53, 58); stroke-linecap: round; stroke-linejoin: round; transform-origin: 336.25px 240.405px;" id="el9cmoeiql8qf" class="animable"></polygon><polygon points="327.42 231.44 345.08 231.44 327.42 214.37 345.08 214.37 327.42 231.44" style="fill: none; stroke: rgb(46, 53, 58); stroke-linecap: round; stroke-linejoin: round; transform-origin: 336.25px 222.905px;" id="el0i34e5pupt06" class="animable"></polygon><polygon points="327.42 213.94 345.08 213.94 327.42 196.87 345.08 196.87 327.42 213.94" style="fill: none; stroke: rgb(46, 53, 58); stroke-linecap: round; stroke-linejoin: round; transform-origin: 336.25px 205.405px;" id="el2w9bgqhay6d" class="animable"></polygon><polygon points="327.42 196.44 345.08 196.44 327.42 179.37 345.08 179.37 327.42 196.44" style="fill: none; stroke: rgb(46, 53, 58); stroke-linecap: round; stroke-linejoin: round; transform-origin: 336.25px 187.905px;" id="eltbsruijt5ah" class="animable"></polygon><polygon points="327.42 178.94 345.08 178.94 327.42 161.87 345.08 161.87 327.42 178.94" style="fill: none; stroke: rgb(46, 53, 58); stroke-linecap: round; stroke-linejoin: round; transform-origin: 336.25px 170.405px;" id="el8fvez15ka1j" class="animable"></polygon><polygon points="327.42 161.44 345.08 161.44 327.42 144.37 345.08 144.37 327.42 161.44" style="fill: none; stroke: rgb(46, 53, 58); stroke-linecap: round; stroke-linejoin: round; transform-origin: 336.25px 152.905px;" id="elkfp639h98e9" class="animable"></polygon><polygon points="327.42 143.94 345.08 143.94 327.42 126.87 345.08 126.87 327.42 143.94" style="fill: none; stroke: rgb(46, 53, 58); stroke-linecap: round; stroke-linejoin: round; transform-origin: 336.25px 135.405px;" id="elvlyv9f14din" class="animable"></polygon><polygon points="327.42 126.44 345.08 126.44 327.42 109.37 345.08 109.37 327.42 126.44" style="fill: none; stroke: rgb(46, 53, 58); stroke-linecap: round; stroke-linejoin: round; transform-origin: 336.25px 117.905px;" id="elj8f8xh9hroa" class="animable"></polygon><polygon points="428.81 126.91 420.09 121.42 357.87 121.42 350.27 126.91 428.81 126.91" style="fill: none; stroke: rgb(46, 53, 58); stroke-linecap: round; stroke-linejoin: round; transform-origin: 389.54px 124.165px;" id="el2vds0izlexp" class="animable"></polygon><rect x="278.25" y="126.44" width="152" height="4" style="fill: rgb(46, 53, 58); stroke: rgb(46, 53, 58); stroke-linecap: round; stroke-linejoin: round; transform-origin: 354.25px 128.44px;" id="elw4grj6z9glj" class="animable"></rect><polyline points="420.09 121.42 327.25 88.44 357.87 121.42" style="fill: none; stroke: rgb(46, 53, 58); stroke-linecap: round; stroke-linejoin: round; transform-origin: 373.67px 104.93px;" id="elyzwx2541uv" class="animable"></polyline><line x1="327.25" y1="88.44" x2="278.25" y2="126.44" style="fill: none; stroke: rgb(46, 53, 58); stroke-linecap: round; stroke-linejoin: round; transform-origin: 302.75px 107.44px;" id="el15orcojoyyn" class="animable"></line><rect x="320.75" y="134.94" width="37.5" height="24" style="fill: rgb(46, 53, 58); stroke: rgb(46, 53, 58); stroke-linecap: round; stroke-linejoin: round; transform-origin: 339.5px 146.94px;" id="elxu0wtm2ense" class="animable"></rect><rect x="320.75" y="389.3" width="37.5" height="24" style="fill: rgb(46, 53, 58); stroke: rgb(46, 53, 58); stroke-linecap: round; stroke-linejoin: round; transform-origin: 339.5px 401.3px;" id="elljnb9fyq9se" class="animable"></rect><rect x="328.56" y="139.94" width="21.87" height="7" style="fill: rgb(255, 255, 255); stroke: rgb(46, 53, 58); stroke-linecap: round; stroke-linejoin: round; transform-origin: 339.495px 143.44px;" id="elnvjyzhru9t8" class="animable"></rect><line x1="430.25" y1="130.44" x2="430.25" y2="173.56" style="fill: rgb(255, 255, 255); stroke: rgb(46, 53, 58); stroke-linecap: round; stroke-linejoin: round; transform-origin: 430.25px 152px;" id="elz4hbhgpc699" class="animable"></line><rect x="424.85" y="188.28" width="11.11" height="12.59" style="fill: rgb(46, 53, 58); stroke: rgb(46, 53, 58); stroke-linecap: round; stroke-linejoin: round; transform-origin: 430.405px 194.575px;" id="elr3zvcrsjno" class="animable"></rect><polyline points="424.85 188.28 430.4 172.74 435.96 188.28" style="fill: none; stroke: rgb(46, 53, 58); stroke-linecap: round; stroke-linejoin: round; transform-origin: 430.405px 180.51px;" id="el7h9u7pcrw2" class="animable"></polyline></g><g id="freepik--Device--inject-1--inject-39" class="animable" style="transform-origin: 249.395px 293.62px;"><path d="M282.17,386.24V364H216.62v22.26a32.21,32.21,0,0,1-7,20l-2.87,3.62H292l-2.88-3.62A32.26,32.26,0,0,1,282.17,386.24Z" style="fill: rgb(255, 255, 255); stroke: rgb(46, 53, 58); stroke-linecap: round; stroke-linejoin: round; stroke-width: 1.09543px; transform-origin: 249.375px 386.94px;" id="elrhop3etbsu" class="animable"></path><path d="M212.59,401.83H286.2a32.18,32.18,0,0,1-4-15.59V364H216.62v22.26A32.18,32.18,0,0,1,212.59,401.83Z" style="fill: rgb(64, 123, 255); mix-blend-mode: multiply; transform-origin: 249.395px 382.915px;" id="el9jyhwyka0re" class="animable"></path><rect x="216.62" y="367.33" width="65.55" height="9.4" style="fill: rgb(46, 53, 58); stroke: rgb(46, 53, 58); stroke-linecap: round; stroke-linejoin: round; stroke-width: 1.09543px; transform-origin: 249.395px 372.03px;" id="el62dhc6gg5ci" class="animable"></rect><rect x="117.66" y="173.4" width="263.47" height="197.6" rx="9.29" style="fill: rgb(46, 53, 58); stroke: rgb(46, 53, 58); stroke-linecap: round; stroke-linejoin: round; stroke-width: 1.09543px; transform-origin: 249.395px 272.2px;" id="elg738xw2uau" class="animable"></rect><path d="M117.66,340.29H381.13a0,0,0,0,1,0,0v21.42a9.29,9.29,0,0,1-9.29,9.29H127a9.29,9.29,0,0,1-9.29-9.29V340.29a0,0,0,0,1,0,0Z" style="fill: rgb(255, 255, 255); stroke: rgb(46, 53, 58); stroke-linecap: round; stroke-linejoin: round; stroke-width: 1.09543px; transform-origin: 249.395px 355.645px;" id="elt51bq3o7ll" class="animable"></path><rect x="130.91" y="185.7" width="236.96" height="139.6" style="fill: rgb(64, 123, 255); stroke: rgb(46, 53, 58); stroke-linecap: round; stroke-linejoin: round; stroke-width: 1.09543px; transform-origin: 249.39px 255.5px;" id="elobv4oturgf" class="animable"></rect><path d="M254.25,355.65a4.86,4.86,0,1,0-4.86,4.85A4.85,4.85,0,0,0,254.25,355.65Z" style="fill: rgb(46, 53, 58); stroke: rgb(46, 53, 58); stroke-linecap: round; stroke-linejoin: round; stroke-width: 1.09543px; transform-origin: 249.39px 355.64px;" id="el5ffmq43h45e" class="animable"></path><rect x="206.78" y="409.87" width="85.24" height="3.97" style="fill: rgb(255, 255, 255); stroke: rgb(46, 53, 58); stroke-linecap: round; stroke-linejoin: round; stroke-width: 1.09543px; transform-origin: 249.4px 411.855px;" id="el2bs4l4chvaa" class="animable"></rect></g><g id="freepik--Tools--inject-1--inject-39" class="animable animator-active" style="transform-origin: 250.482px 251.2px;"><path d="M326.51,220.68A23.72,23.72,0,0,0,333,199.36l-14.87,14.87a4.51,4.51,0,0,1-6.36,0l-12.36-12.36a4.5,4.5,0,0,1,0-6.37l14.86-14.86a23.71,23.71,0,0,0-26.64,31.87L249.26,250l-3.7-3.71,6-6a1.67,1.67,0,0,0,0-2.34l-4.68-4.68a1.65,1.65,0,0,0-2.33,0l-2.34,2.34-5.07-5.06,1.95-1.95a2.21,2.21,0,0,0,0-3.12l-41.87-41.87a10.74,10.74,0,0,0-15.2,0l-4.28,4.28a10.73,10.73,0,0,0,0,15.19l41.87,41.88a2.21,2.21,0,0,0,3.12,0l1.95-1.95,5.06,5.07-2.33,2.33a1.65,1.65,0,0,0,0,2.34l4.67,4.68a1.67,1.67,0,0,0,2.34,0l6-6,3.64,3.64-31.82,31a23.72,23.72,0,0,0-31.88,26.64l14.87-14.86a4.5,4.5,0,0,1,6.37,0L214,310.13a4.5,4.5,0,0,1,0,6.37l-14.86,14.86a23.72,23.72,0,0,0,26.65-31.87l31.82-31L301,311.83a8.89,8.89,0,0,0,2,9.5l10.47,10.47,12.56-12.57-10.47-10.46a8.89,8.89,0,0,0-9.5-2l-43.32-43.32L301.15,226A23.72,23.72,0,0,0,326.51,220.68Z" style="fill: rgb(46, 53, 58); stroke: rgb(46, 53, 58); stroke-linecap: round; stroke-linejoin: round; stroke-width: 1.09543px; transform-origin: 254.016px 256px;" id="el95w43t1wy9" class="animable"></path><path d="M223.15,294.16l75.33-73.49A23.71,23.71,0,0,0,330.35,194l-14.86,14.86a4.5,4.5,0,0,1-6.37,0l-12.36-12.36a4.49,4.49,0,0,1,0-6.36l14.86-14.87A23.71,23.71,0,0,0,285,207.17l-75.33,73.49a23.71,23.71,0,0,0-31.87,26.64l14.86-14.86a4.5,4.5,0,0,1,6.37,0l12.36,12.36a4.49,4.49,0,0,1,0,6.36L196.5,326a23.72,23.72,0,0,0,26.65-31.87Z" style="fill: rgb(255, 255, 255); stroke: rgb(46, 53, 58); stroke-miterlimit: 10; transform-origin: 254.078px 250.635px;" id="eln7w48l32bln" class="animable"></path><path d="M217.35,286.45h0a3.08,3.08,0,0,1,0-4.35l67.73-65.89a3.09,3.09,0,0,1,4.36,0h0a3.09,3.09,0,0,1,0,4.36l-67.73,65.88A3.09,3.09,0,0,1,217.35,286.45Z" style="fill: rgb(255, 255, 255); stroke: rgb(46, 53, 58); stroke-miterlimit: 10; transform-origin: 253.395px 251.33px;" id="elbrdh020r6rc" class="animable"></path><g id="elipv33g45c3c"><rect x="267.85" y="222.86" width="7.16" height="103.31" style="fill: rgb(255, 255, 255); stroke: rgb(46, 53, 58); stroke-miterlimit: 10; transform-origin: 271.43px 274.515px; transform: rotate(-45deg);" class="animable"></rect></g><path d="M323.38,313.9l-12.56,12.56L300.35,316a8.89,8.89,0,0,1,0-12.57h0a8.88,8.88,0,0,1,12.56,0Z" style="fill: rgb(255, 255, 255); stroke: rgb(46, 53, 58); stroke-miterlimit: 10; transform-origin: 310.564px 313.644px;" id="elcdf46mbiw9a" class="animable"></path><g id="elt0i77escz5"><rect x="220.64" y="225.37" width="17.63" height="14.32" style="fill: rgb(255, 255, 255); stroke: rgb(46, 53, 58); stroke-miterlimit: 10; transform-origin: 229.455px 232.53px; transform: rotate(-45deg);" class="animable"></rect></g><g id="el06bwkmvs3pxc"><path d="M199.74,169.77h6.06a10.74,10.74,0,0,1,10.74,10.74v59.22a2.2,2.2,0,0,1-2.2,2.2H191.2a2.2,2.2,0,0,1-2.2-2.2V180.51A10.74,10.74,0,0,1,199.74,169.77Z" style="fill: rgb(255, 255, 255); stroke: rgb(46, 53, 58); stroke-miterlimit: 10; transform-origin: 202.77px 205.85px; transform: rotate(-45deg);" class="animable"></path></g><g id="eljang1nzlccj"><rect x="223.08" y="234.98" width="27.54" height="9.92" rx="1.65" style="fill: rgb(255, 255, 255); stroke: rgb(46, 53, 58); stroke-miterlimit: 10; transform-origin: 236.85px 239.94px; transform: rotate(-45deg);" class="animable"></rect></g><path d="M222.44,233.32,219,236.77l-41.12-41.12a2.44,2.44,0,0,1,0-3.45h0a2.43,2.43,0,0,1,3.45,0Z" style="fill: rgb(255, 255, 255); stroke: rgb(46, 53, 58); stroke-miterlimit: 10; transform-origin: 199.803px 214.126px;" id="elb2xevoatp44" class="animable"></path><path d="M228.31,227.45l-3.46,3.45-41.12-41.12a2.44,2.44,0,0,1,0-3.45h0a2.43,2.43,0,0,1,3.45,0Z" style="fill: rgb(255, 255, 255); stroke: rgb(46, 53, 58); stroke-miterlimit: 10; transform-origin: 205.663px 208.256px;" id="el2m8cwpiixzt" class="animable"></path><path d="M234.18,221.58,230.72,225,189.6,183.91a2.44,2.44,0,0,1,0-3.45h0a2.43,2.43,0,0,1,3.45,0Z" style="fill: rgb(255, 255, 255); stroke: rgb(46, 53, 58); stroke-miterlimit: 10; transform-origin: 211.533px 202.371px;" id="elezsr2y8mp5d" class="animable"></path></g><g id="freepik--Ladders--inject-1--inject-39" class="animable" style="transform-origin: 246.22px 326.745px;"><polygon points="371.82 415.07 368.49 415.07 346.96 238.41 350.3 238.41 371.82 415.07" style="fill: rgb(255, 255, 255); stroke: rgb(46, 53, 58); stroke-miterlimit: 10; transform-origin: 359.39px 326.74px;" id="elo4hxh1uqah8" class="animable"></polygon><polygon points="397.82 415.07 394.49 415.07 372.96 238.41 376.3 238.41 397.82 415.07" style="fill: rgb(255, 255, 255); stroke: rgb(46, 53, 58); stroke-miterlimit: 10; transform-origin: 385.39px 326.74px;" id="elfczpnpiozc4" class="animable"></polygon><polygon points="376.51 253.05 350.52 253.05 349.85 247.6 375.85 247.6 376.51 253.05" style="fill: rgb(255, 255, 255); stroke: rgb(46, 53, 58); stroke-miterlimit: 10; transform-origin: 363.18px 250.325px;" id="elpch8ooup7u" class="animable"></polygon><polygon points="378.96 273.17 352.97 273.17 352.31 267.72 378.3 267.72 378.96 273.17" style="fill: rgb(255, 255, 255); stroke: rgb(46, 53, 58); stroke-miterlimit: 10; transform-origin: 365.635px 270.445px;" id="elzk2vrbm1kjg" class="animable"></polygon><polygon points="381.42 293.29 355.42 293.29 354.76 287.84 380.75 287.84 381.42 293.29" style="fill: rgb(255, 255, 255); stroke: rgb(46, 53, 58); stroke-miterlimit: 10; transform-origin: 368.09px 290.565px;" id="el4k5kmqb192g" class="animable"></polygon><polygon points="383.87 313.42 357.88 313.42 357.21 307.97 383.2 307.97 383.87 313.42" style="fill: rgb(255, 255, 255); stroke: rgb(46, 53, 58); stroke-miterlimit: 10; transform-origin: 370.54px 310.695px;" id="eltxv8qtcww4m" class="animable"></polygon><polygon points="386.32 333.54 360.33 333.54 359.66 328.09 385.65 328.09 386.32 333.54" style="fill: rgb(255, 255, 255); stroke: rgb(46, 53, 58); stroke-miterlimit: 10; transform-origin: 372.99px 330.815px;" id="elv8k7xypygm" class="animable"></polygon><polygon points="388.77 353.66 362.78 353.66 362.12 348.21 388.11 348.21 388.77 353.66" style="fill: rgb(255, 255, 255); stroke: rgb(46, 53, 58); stroke-miterlimit: 10; transform-origin: 375.445px 350.935px;" id="el4or6phyy1vu" class="animable"></polygon><polygon points="391.22 373.79 365.23 373.79 364.57 368.34 390.56 368.34 391.22 373.79" style="fill: rgb(255, 255, 255); stroke: rgb(46, 53, 58); stroke-miterlimit: 10; transform-origin: 377.895px 371.065px;" id="elfvc5gai64xr" class="animable"></polygon><polygon points="393.68 393.91 367.68 393.91 367.02 388.46 393.01 388.46 393.68 393.91" style="fill: rgb(255, 255, 255); stroke: rgb(46, 53, 58); stroke-miterlimit: 10; transform-origin: 380.35px 391.185px;" id="eljo9egf2neha" class="animable"></polygon><line x1="350.12" y1="249.74" x2="353.52" y2="249.74" style="fill: none; stroke: rgb(46, 53, 58); stroke-miterlimit: 10; stroke-width: 0.5px; transform-origin: 351.82px 249.74px;" id="el8yf5ug2zk3t" class="animable"></line><line x1="350.92" y1="251.34" x2="357.52" y2="251.34" style="fill: none; stroke: rgb(46, 53, 58); stroke-miterlimit: 10; stroke-width: 0.5px; transform-origin: 354.22px 251.34px;" id="elam0zmb6p2ja" class="animable"></line><line x1="376.11" y1="251.34" x2="371.31" y2="251.34" style="fill: none; stroke: rgb(46, 53, 58); stroke-miterlimit: 10; stroke-width: 0.5px; transform-origin: 373.71px 251.34px;" id="el4jsd2v0b089" class="animable"></line><line x1="378.51" y1="270.73" x2="374.11" y2="270.73" style="fill: none; stroke: rgb(46, 53, 58); stroke-miterlimit: 10; stroke-width: 0.5px; transform-origin: 376.31px 270.73px;" id="el1qgks4axi11" class="animable"></line><line x1="353.32" y1="271.73" x2="363.52" y2="271.73" style="fill: none; stroke: rgb(46, 53, 58); stroke-miterlimit: 10; stroke-width: 0.5px; transform-origin: 358.42px 271.73px;" id="elzt9zqkp42m" class="animable"></line><line x1="355.12" y1="290.52" x2="363.92" y2="290.52" style="fill: none; stroke: rgb(46, 53, 58); stroke-miterlimit: 10; stroke-width: 0.5px; transform-origin: 359.52px 290.52px;" id="elveshcfegzy9" class="animable"></line><line x1="355.52" y1="292.12" x2="360.32" y2="292.12" style="fill: none; stroke: rgb(46, 53, 58); stroke-miterlimit: 10; stroke-width: 0.5px; transform-origin: 357.92px 292.12px;" id="elizweemr95qe" class="animable"></line><line x1="383.7" y1="310.31" x2="378.31" y2="310.31" style="fill: none; stroke: rgb(46, 53, 58); stroke-miterlimit: 10; stroke-width: 0.5px; transform-origin: 381.005px 310.31px;" id="eln7r1n0ixoan" class="animable"></line><line x1="383.31" y1="311.91" x2="374.31" y2="311.91" style="fill: none; stroke: rgb(46, 53, 58); stroke-miterlimit: 10; stroke-width: 0.5px; transform-origin: 378.81px 311.91px;" id="eljkjmziauvb" class="animable"></line><line x1="391.14" y1="371.74" x2="382.89" y2="371.74" style="fill: none; stroke: rgb(46, 53, 58); stroke-miterlimit: 10; stroke-width: 0.5px; transform-origin: 387.015px 371.74px;" id="elbjshgy82m8" class="animable"></line><line x1="364.89" y1="370.24" x2="369.89" y2="370.24" style="fill: none; stroke: rgb(46, 53, 58); stroke-miterlimit: 10; stroke-width: 0.5px; transform-origin: 367.39px 370.24px;" id="elx7g59g9y3lo" class="animable"></line><line x1="381.64" y1="371.74" x2="375.14" y2="371.74" style="fill: none; stroke: rgb(46, 53, 58); stroke-miterlimit: 10; stroke-width: 0.5px; transform-origin: 378.39px 371.74px;" id="elc19o3s680j" class="animable"></line><line x1="367.39" y1="390.99" x2="374.39" y2="390.99" style="fill: none; stroke: rgb(46, 53, 58); stroke-miterlimit: 10; stroke-width: 0.5px; transform-origin: 370.89px 390.99px;" id="elb0qq4frnt8" class="animable"></line><line x1="368.89" y1="392.74" x2="376.89" y2="392.74" style="fill: none; stroke: rgb(46, 53, 58); stroke-miterlimit: 10; stroke-width: 0.5px; transform-origin: 372.89px 392.74px;" id="elk46zow581xq" class="animable"></line><line x1="360.89" y1="331.74" x2="363.14" y2="331.74" style="fill: none; stroke: rgb(46, 53, 58); stroke-miterlimit: 10; stroke-width: 0.5px; transform-origin: 362.015px 331.74px;" id="elydxtrukz7mc" class="animable"></line><line x1="385.39" y1="331.24" x2="377.14" y2="331.24" style="fill: none; stroke: rgb(46, 53, 58); stroke-miterlimit: 10; stroke-width: 0.5px; transform-origin: 381.265px 331.24px;" id="elssvfkivcjyi" class="animable"></line><polygon points="176.97 309.44 173.01 314.6 86.87 247.35 90.84 242.19 176.97 309.44" style="fill: rgb(46, 53, 58); stroke: rgb(46, 53, 58); stroke-linecap: round; stroke-linejoin: round; stroke-width: 1.09543px; transform-origin: 131.92px 278.395px;" id="elzaoojrwlb9" class="animable"></polygon><polygon points="86.87 309.44 90.84 314.6 176.97 247.35 173.01 242.19 86.87 309.44" style="fill: rgb(46, 53, 58); stroke: rgb(46, 53, 58); stroke-linecap: round; stroke-linejoin: round; stroke-width: 1.09543px; transform-origin: 131.92px 278.395px;" id="elcq0s6rp26i6" class="animable"></polygon><polygon points="176.97 384.98 174.52 391.63 86.87 322.89 89.38 316.18 176.97 384.98" style="fill: rgb(46, 53, 58); stroke: rgb(46, 53, 58); stroke-linecap: round; stroke-linejoin: round; stroke-width: 1.09543px; transform-origin: 131.92px 353.905px;" id="elsr3lpxil7o" class="animable"></polygon><polygon points="86.87 384.98 87.47 392.78 176.97 322.89 173.01 317.74 86.87 384.98" style="fill: rgb(46, 53, 58); stroke: rgb(46, 53, 58); stroke-linecap: round; stroke-linejoin: round; stroke-width: 1.09543px; transform-origin: 131.92px 355.26px;" id="elpd1i1nd1j7" class="animable"></polygon><rect x="85.4" y="241.48" width="3.5" height="173.6" style="fill: rgb(46, 53, 58); stroke: rgb(46, 53, 58); stroke-linecap: round; stroke-linejoin: round; stroke-width: 1.09543px; transform-origin: 87.15px 328.28px;" id="el2rjweigeldn" class="animable"></rect><rect x="173.95" y="241.48" width="3.5" height="173.6" style="fill: rgb(46, 53, 58); stroke: rgb(46, 53, 58); stroke-linecap: round; stroke-linejoin: round; stroke-width: 1.09543px; transform-origin: 175.7px 328.28px;" id="elqa20p6waeg" class="animable"></rect><polygon points="160.12 309.44 156.15 314.6 70.02 247.35 73.98 242.19 160.12 309.44" style="fill: rgb(255, 255, 255); stroke: rgb(46, 53, 58); stroke-linecap: round; stroke-linejoin: round; stroke-width: 1.09543px; transform-origin: 115.07px 278.395px;" id="elzxrzf2twgy" class="animable"></polygon><polygon points="70.02 309.44 73.98 314.6 160.12 247.35 156.15 242.19 70.02 309.44" style="fill: rgb(255, 255, 255); stroke: rgb(46, 53, 58); stroke-linecap: round; stroke-linejoin: round; stroke-width: 1.09543px; transform-origin: 115.07px 278.395px;" id="elv2t545t0e6" class="animable"></polygon><polygon points="160.12 384.98 157.66 391.63 70.02 322.89 71.28 316.18 160.12 384.98" style="fill: rgb(255, 255, 255); stroke: rgb(46, 53, 58); stroke-linecap: round; stroke-linejoin: round; stroke-width: 1.09543px; transform-origin: 115.07px 353.905px;" id="elhkcgzrhuwi" class="animable"></polygon><polygon points="70.02 384.98 70.62 392.78 160.12 322.89 156.15 317.74 70.02 384.98" style="fill: rgb(255, 255, 255); stroke: rgb(46, 53, 58); stroke-linecap: round; stroke-linejoin: round; stroke-width: 1.09543px; transform-origin: 115.07px 355.26px;" id="eld6hbk6q8div" class="animable"></polygon><rect x="68.54" y="241.48" width="3.5" height="173.6" style="fill: rgb(255, 255, 255); stroke: rgb(46, 53, 58); stroke-linecap: round; stroke-linejoin: round; stroke-width: 1.09543px; transform-origin: 70.29px 328.28px;" id="elz66765uhwym" class="animable"></rect><rect x="157.09" y="241.48" width="3.5" height="173.6" style="fill: rgb(255, 255, 255); stroke: rgb(46, 53, 58); stroke-linecap: round; stroke-linejoin: round; stroke-width: 1.09543px; transform-origin: 158.84px 328.28px;" id="elkxzqkm5x8w9" class="animable"></rect><rect x="64.04" y="239.87" width="101.06" height="5.5" style="fill: rgb(255, 255, 255); stroke: rgb(46, 53, 58); stroke-linecap: round; stroke-linejoin: round; stroke-width: 1.09543px; transform-origin: 114.57px 242.62px;" id="elady1u5w852m" class="animable"></rect><rect x="152.62" y="239.87" width="28.05" height="5.5" style="fill: rgb(46, 53, 58); stroke: rgb(46, 53, 58); stroke-linecap: round; stroke-linejoin: round; stroke-width: 1.09543px; transform-origin: 166.645px 242.62px;" id="elzg0979ig5us" class="animable"></rect><rect x="64.04" y="311.91" width="101.06" height="5.5" style="fill: rgb(255, 255, 255); stroke: rgb(46, 53, 58); stroke-linecap: round; stroke-linejoin: round; stroke-width: 1.09543px; transform-origin: 114.57px 314.66px;" id="elngt7hzmxer8" class="animable"></rect><rect x="152.62" y="311.91" width="28.05" height="5.5" style="fill: rgb(46, 53, 58); stroke: rgb(46, 53, 58); stroke-linecap: round; stroke-linejoin: round; stroke-width: 1.09543px; transform-origin: 166.645px 314.66px;" id="els58pzzlo7zm" class="animable"></rect><polygon points="291.03 415.07 283.12 415.07 293.67 353.26 301.59 353.26 291.03 415.07" style="fill: rgb(46, 53, 58); stroke: rgb(46, 53, 58); stroke-miterlimit: 10; stroke-width: 0.972732px; transform-origin: 292.355px 384.165px;" id="elrror7ezmwkp" class="animable"></polygon><polygon points="306.86 415.07 314.78 415.07 304.22 353.26 296.31 353.26 306.86 415.07" style="fill: rgb(255, 255, 255); stroke: rgb(46, 53, 58); stroke-miterlimit: 10; stroke-width: 0.972732px; transform-origin: 305.545px 384.165px;" id="elx7i02lztijf" class="animable"></polygon><polygon points="403.35 415.07 395.44 415.07 405.99 353.26 413.9 353.26 403.35 415.07" style="fill: rgb(46, 53, 58); stroke: rgb(46, 53, 58); stroke-miterlimit: 10; stroke-width: 0.972732px; transform-origin: 404.67px 384.165px;" id="elxl7ahc3kct" class="animable"></polygon><polygon points="419.18 415.07 427.1 415.07 416.54 353.26 408.63 353.26 419.18 415.07" style="fill: rgb(255, 255, 255); stroke: rgb(46, 53, 58); stroke-miterlimit: 10; stroke-width: 0.972732px; transform-origin: 417.865px 384.165px;" id="elpbg2mong5nh" class="animable"></polygon><rect x="273.75" y="335.39" width="150.97" height="20.97" style="fill: rgb(64, 123, 255); stroke: rgb(46, 53, 58); stroke-miterlimit: 10; stroke-width: 0.972732px; transform-origin: 349.235px 345.875px;" id="ela3p9gerb2fr" class="animable"></rect><rect x="277.43" y="335.39" width="150.97" height="20.97" style="fill: rgb(64, 123, 255); stroke: rgb(46, 53, 58); stroke-miterlimit: 10; stroke-width: 0.972732px; transform-origin: 352.915px 345.875px;" id="elcm85ot108pr" class="animable"></rect><polygon points="279.9 356.36 292.71 356.36 299.33 335.39 286.52 335.39 279.9 356.36" style="fill: rgb(46, 53, 58); transform-origin: 289.615px 345.875px;" id="elejc5o74nrx" class="animable"></polygon><polygon points="330.62 335.39 317.8 335.39 311.18 356.36 324 356.36 330.62 335.39" style="fill: rgb(46, 53, 58); transform-origin: 320.9px 345.875px;" id="elxd4r3dy3y0d" class="animable"></polygon><polygon points="424.47 335.39 411.65 335.39 405.03 356.36 417.85 356.36 424.47 335.39" style="fill: rgb(46, 53, 58); transform-origin: 414.75px 345.875px;" id="el5ze3rpou9u8" class="animable"></polygon><polygon points="393.18 335.39 380.37 335.39 373.75 356.36 386.56 356.36 393.18 335.39" style="fill: rgb(46, 53, 58); transform-origin: 383.465px 345.875px;" id="elz1vqrzcufr" class="animable"></polygon><polygon points="361.9 335.39 349.08 335.39 342.46 356.36 355.28 356.36 361.9 335.39" style="fill: rgb(46, 53, 58); transform-origin: 352.18px 345.875px;" id="el76hp0pxnpwe" class="animable"></polygon><line x1="427.57" y1="344.7" x2="402.59" y2="344.7" style="fill: none; stroke: rgb(46, 53, 58); stroke-miterlimit: 10; transform-origin: 415.08px 344.7px;" id="elj4bq07k3vz" class="animable"></line><line x1="427.13" y1="348.2" x2="423.19" y2="348.2" style="fill: none; stroke: rgb(46, 53, 58); stroke-miterlimit: 10; transform-origin: 425.16px 348.2px;" id="elnu9m6cmi2cc" class="animable"></line><line x1="276.79" y1="347.33" x2="301.77" y2="347.33" style="fill: none; stroke: rgb(46, 53, 58); stroke-miterlimit: 10; transform-origin: 289.28px 347.33px;" id="elol41hsjlgg" class="animable"></line><line x1="277.22" y1="343.38" x2="308.78" y2="343.38" style="fill: none; stroke: rgb(46, 53, 58); stroke-miterlimit: 10; transform-origin: 293px 343.38px;" id="el54hl3l1na99" class="animable"></line></g><defs>     <filter id="active" height="200%">         <feMorphology in="SourceAlpha" result="DILATED" operator="dilate" radius="2"></feMorphology>                <feFlood flood-color="#32DFEC" flood-opacity="1" result="PINK"></feFlood>        <feComposite in="PINK" in2="DILATED" operator="in" result="OUTLINE"></feComposite>        <feMerge>            <feMergeNode in="OUTLINE"></feMergeNode>            <feMergeNode in="SourceGraphic"></feMergeNode>        </feMerge>    </filter>    <filter id="hover" height="200%">        <feMorphology in="SourceAlpha" result="DILATED" operator="dilate" radius="2"></feMorphology>                <feFlood flood-color="#ff0000" flood-opacity="0.5" result="PINK"></feFlood>        <feComposite in="PINK" in2="DILATED" operator="in" result="OUTLINE"></feComposite>        <feMerge>            <feMergeNode in="OUTLINE"></feMergeNode>            <feMergeNode in="SourceGraphic"></feMergeNode>        </feMerge>            <feColorMatrix type="matrix" values="0   0   0   0   0                0   1   0   0   0                0   0   0   0   0                0   0   0   1   0 "></feColorMatrix>    </filter></defs></svg>