<?xml version="1.0" encoding="utf-8"?><svg xmlns="http://www.w3.org/2000/svg" xmlns:xlink="http://www.w3.org/1999/xlink" width="1272" height="645" preserveAspectRatio="xMidYMid" viewBox="0 0 1272 645" style="z-index:1;margin-right:-1.33333px;display:block;background-color:rgb(255, 255, 255);animation-play-state:paused" ><g transform="translate(636,322.5) scale(1,1) translate(-636,-322.5)" style="transform:matrix(1, 0, 0, 1, 0, 0);animation-play-state:paused" ><defs style="animation-play-state:paused" ><linearGradient id="ldbk-photon-axtauo7kx5v-lg" x1="611" x2="1272" y1="0" y2="0" gradientUnits="userSpaceOnUse" style="animation-play-state:paused" ><stop stop-color="#1d3f72" offset="0" style="animation-play-state:paused" ></stop>

    
<stop stop-color="#34ffef" offset="1" style="animation-play-state:paused" ></stop></linearGradient>

  
<mask id="ldbk-photon-axtauo7kx5v-mask" style="animation-play-state:paused" ><g style="animation-play-state:paused" ><path d="M1572 -0.5 L599.00493763027 -0.5 A15 15 0 0 1 599.00493763027 30.5 L1572 30.5" fill="#fff" transform="matrix(1,0,0,1,27.317550659179688,0)" style="transform:matrix(1, 0, 0, 1, 27.3176, 0);animation-play-state:paused" ></path>
<path d="M1323.2024214996497 -0.5 L1344.4048429992995 -0.5 A15 15 0 0 1 1344.4048429992995 30.5 L1323.2024214996497 30.5 A15 15 0 0 1 1323.2024214996497 -0.5" fill="#000" transform="matrix(1,0,0,1,0,0)" opacity="1" style="transform:matrix(1, 0, 0, 1, 0, 0);animation-play-state:paused" ></path>
<path d="M1572 29.5 L555.7074342267704 29.5 A15 15 0 0 0 555.7074342267704 60.5 L1572 60.5" fill="#fff" transform="matrix(1,0,0,1,-15.55949592590332,0)" style="transform:matrix(1, 0, 0, 1, -15.5595, 0);animation-play-state:paused" ></path>
<path d="M683.7609714442096 29.5 L722.7681786781134 29.5 A15 15 0 0 1 722.7681786781134 60.5 L683.7609714442096 60.5 A15 15 0 0 1 683.7609714442096 29.5" fill="#fff" transform="matrix(1,0,0,1,0,0)" opacity="1" style="transform:matrix(1, 0, 0, 1, 0, 0);animation-play-state:paused" ></path>
<path d="M1572 59.5 L619.8820974025418 59.5 A15 15 0 0 1 619.8820974025418 90.5 L1572 90.5" fill="#fff" transform="matrix(1,0,0,1,18.095666885375977,0)" style="transform:matrix(1, 0, 0, 1, 18.0957, 0);animation-play-state:paused" ></path>
<path d="M1323.5984782598268 59.5 L1345.1969565196537 59.5 A15 15 0 0 1 1345.1969565196537 90.5 L1323.5984782598268 90.5 A15 15 0 0 1 1323.5984782598268 59.5" fill="#000" transform="matrix(1,0,0,1,-723.765625,0)" opacity="0.649351" style="transform:matrix(1, 0, 0, 1, -723.766, 0);opacity:0.649351;animation-play-state:paused" ></path>
<path d="M1572 89.5 L587.7449569566633 89.5 A15 15 0 0 0 587.7449569566633 120.5 L1572 120.5" fill="#fff" transform="matrix(1,0,0,1,-2.0435867309570312,0)" style="transform:matrix(1, 0, 0, 1, -2.04359, 0);animation-play-state:paused" ></path>
<path d="M658.8963569109843 89.5 L698.6833536586192 89.5 A15 15 0 0 1 698.6833536586192 120.5 L658.8963569109843 120.5 A15 15 0 0 1 658.8963569109843 89.5" fill="#fff" transform="matrix(1,0,0,1,0,0)" opacity="0.25974" style="transform:matrix(1, 0, 0, 1, 0, 0);opacity:0.25974;animation-play-state:paused" ></path>
<path d="M1572 119.5 L604.4485332481362 119.5 A15 15 0 0 1 604.4485332481362 150.5 L1572 150.5" fill="#fff" transform="matrix(1,0,0,1,0.3869380056858063,0)" style="transform:matrix(1, 0, 0, 1, 0.386938, 0);animation-play-state:paused" ></path>
<path d="M1325.1864761433314 119.5 L1348.372952286663 119.5 A15 15 0 0 1 1348.372952286663 150.5 L1325.1864761433314 150.5 A15 15 0 0 1 1325.1864761433314 119.5" fill="#000" transform="matrix(1,0,0,1,-141.66749572753906,0)" opacity="1" style="transform:matrix(1, 0, 0, 1, -141.668, 0);animation-play-state:paused" ></path>
<path d="M1572 149.5 L545.365046958187 149.5 A15 15 0 0 0 545.365046958187 180.5 L1572 180.5" fill="#fff" transform="matrix(1,0,0,1,-7.906484603881836,0)" style="transform:matrix(1, 0, 0, 1, -7.90648, 0);animation-play-state:paused" ></path>
<path d="M694.7660143769889 149.5 L711.2157199086577 149.5 A15 15 0 0 1 711.2157199086577 180.5 L694.7660143769889 180.5 A15 15 0 0 1 694.7660143769889 149.5" fill="#fff" transform="matrix(1,0,0,1,0,0)" opacity="0.454546" style="transform:matrix(1, 0, 0, 1, 0, 0);opacity:0.454546;animation-play-state:paused" ></path>
<path d="M1572 179.5 L584.0847637624183 179.5 A15 15 0 0 1 584.0847637624183 210.5 L1572 210.5" fill="#fff" transform="matrix(1,0,0,1,0.5321121215820312,0)" style="transform:matrix(1, 0, 0, 1, 0.532112, 0);animation-play-state:paused" ></path>
<path d="M1326.4041133430046 179.5 L1350.8082266860092 179.5 A15 15 0 0 1 1350.8082266860092 210.5 L1326.4041133430046 210.5 A15 15 0 0 1 1326.4041133430046 179.5" fill="#000" transform="matrix(1,0,0,1,-984.5910034179688,0)" opacity="0.25974" style="transform:matrix(1, 0, 0, 1, -984.591, 0);opacity:0.25974;animation-play-state:paused" ></path>
<path d="M1572 209.5 L561.9018936873201 209.5 A15 15 0 0 0 561.9018936873201 240.5 L1572 240.5" fill="#fff" transform="matrix(1,0,0,1,-29.570802688598633,0)" style="transform:matrix(1, 0, 0, 1, -29.5708, 0);animation-play-state:paused" ></path>
<path d="M645.6177025583775 209.5 L677.4797685670848 209.5 A15 15 0 0 1 677.4797685670848 240.5 L645.6177025583775 240.5 A15 15 0 0 1 645.6177025583775 209.5" fill="#fff" transform="matrix(1,0,0,1,0,0)" opacity="0.12987" style="transform:matrix(1, 0, 0, 1, 0, 0);opacity:0.12987;animation-play-state:paused" ></path>
<path d="M1572 239.5 L609.5333933474941 239.5 A15 15 0 0 1 609.5333933474941 270.5 L1572 270.5" fill="#fff" transform="matrix(1,0,0,1,29.824722290039062,0)" style="transform:matrix(1, 0, 0, 1, 29.8247, 0);animation-play-state:paused" ></path>
<path d="M1325.6307960056706 239.5 L1349.2615920113412 239.5 A15 15 0 0 1 1349.2615920113412 270.5 L1325.6307960056706 270.5 A15 15 0 0 1 1325.6307960056706 239.5" fill="#000" transform="matrix(1,0,0,1,-345.4035949707031,0)" opacity="1" style="transform:matrix(1, 0, 0, 1, -345.404, 0);animation-play-state:paused" ></path>
<path d="M1572 269.5 L553.5138899205107 269.5 A15 15 0 0 0 553.5138899205107 300.5 L1572 300.5" fill="#fff" transform="matrix(1,0,0,1,-0.5451774597167969,0)" style="transform:matrix(1, 0, 0, 1, -0.545177, 0);animation-play-state:paused" ></path>
<path d="M691.5334068986956 269.5 L724.580355837029 269.5 A15 15 0 0 1 724.580355837029 300.5 L691.5334068986956 300.5 A15 15 0 0 1 691.5334068986956 269.5" fill="#fff" transform="matrix(1,0,0,1,0,0)" opacity="0.779221" style="transform:matrix(1, 0, 0, 1, 0, 0);opacity:0.779221;animation-play-state:paused" ></path>
<path d="M1572 299.5 L618.6114861510923 299.5 A15 15 0 0 1 618.6114861510923 330.5 L1572 330.5" fill="#fff" transform="matrix(1,0,0,1,4.066661834716797,0)" style="transform:matrix(1, 0, 0, 1, 4.06666, 0);animation-play-state:paused" ></path>
<path d="M1318.4188338821032 299.5 L1334.8376677642063 299.5 A15 15 0 0 1 1334.8376677642063 330.5 L1318.4188338821032 330.5 A15 15 0 0 1 1318.4188338821032 299.5" fill="#000" transform="matrix(1,0,0,1,-102.1513671875,0)" opacity="1" style="transform:matrix(1, 0, 0, 1, -102.151, 0);animation-play-state:paused" ></path>
<path d="M1572 329.5 L586.8099670470101 329.5 A15 15 0 0 0 586.8099670470101 360.5 L1572 360.5" fill="#fff" transform="matrix(1,0,0,1,-31.999298095703125,0)" style="transform:matrix(1, 0, 0, 1, -31.9993, 0);animation-play-state:paused" ></path>
<path d="M711.1991068380116 329.5 L729.7836400214557 329.5 A15 15 0 0 1 729.7836400214557 360.5 L711.1991068380116 360.5 A15 15 0 0 1 711.1991068380116 329.5" fill="#fff" transform="matrix(1,0,0,1,0,0)" opacity="0.714285" style="transform:matrix(1, 0, 0, 1, 0, 0);opacity:0.714285;animation-play-state:paused" ></path>
<path d="M1572 359.5 L657.1930548431303 359.5 A15 15 0 0 1 657.1930548431303 390.5 L1572 390.5" fill="#fff" transform="matrix(1,0,0,1,4.356011867523193,0)" style="transform:matrix(1, 0, 0, 1, 4.35601, 0);animation-play-state:paused" ></path>
<path d="M1324.267197997541 359.5 L1346.534395995082 359.5 A15 15 0 0 1 1346.534395995082 390.5 L1324.267197997541 390.5 A15 15 0 0 1 1324.267197997541 359.5" fill="#000" transform="matrix(1,0,0,1,-1396.4981689453125,0)" opacity="0.12987" style="transform:matrix(1, 0, 0, 1, -1396.5, 0);opacity:0.12987;animation-play-state:paused" ></path>
<path d="M1572 389.5 L619.0849350296924 389.5 A15 15 0 0 0 619.0849350296924 420.5 L1572 420.5" fill="#fff" transform="matrix(1,0,0,1,-15.390954971313477,0)" style="transform:matrix(1, 0, 0, 1, -15.391, 0);animation-play-state:paused" ></path>
<path d="M673.1915293147963 389.5 L692.913919280926 389.5 A15 15 0 0 1 692.913919280926 420.5 L673.1915293147963 420.5 A15 15 0 0 1 673.1915293147963 389.5" fill="#fff" transform="matrix(1,0,0,1,0,0)" opacity="0.324675" style="transform:matrix(1, 0, 0, 1, 0, 0);opacity:0.324675;animation-play-state:paused" ></path>
<path d="M1572 419.5 L663.2337449116299 419.5 A15 15 0 0 1 663.2337449116299 450.5 L1572 450.5" fill="#fff" transform="matrix(1,0,0,1,19.946491241455078,0)" style="transform:matrix(1, 0, 0, 1, 19.9465, 0);animation-play-state:paused" ></path>
<path d="M1335.4693915669513 419.5 L1368.9387831339027 419.5 A15 15 0 0 1 1368.9387831339027 450.5 L1335.4693915669513 450.5 A15 15 0 0 1 1335.4693915669513 419.5" fill="#000" transform="matrix(1,0,0,1,-879.0677490234375,0)" opacity="0.25974" style="transform:matrix(1, 0, 0, 1, -879.068, 0);opacity:0.25974;animation-play-state:paused" ></path>
<path d="M1572 449.5 L639.7303424916031 449.5 A15 15 0 0 0 639.7303424916031 480.5 L1572 480.5" fill="#fff" transform="matrix(1,0,0,1,-38.512535095214844,0)" style="transform:matrix(1, 0, 0, 1, -38.5125, 0);animation-play-state:paused" ></path>
<path d="M694.5338687956805 449.5 L711.9950304656408 449.5 A15 15 0 0 1 711.9950304656408 480.5 L694.5338687956805 480.5 A15 15 0 0 1 694.5338687956805 449.5" fill="#fff" transform="matrix(1,0,0,1,0,0)" opacity="1" style="transform:matrix(1, 0, 0, 1, 0, 0);animation-play-state:paused" ></path>
<path d="M1572 479.5 L670.9333230264378 479.5 A15 15 0 0 1 670.9333230264378 510.5 L1572 510.5" fill="#fff" transform="matrix(1,0,0,1,34.89109420776367,0)" style="transform:matrix(1, 0, 0, 1, 34.8911, 0);animation-play-state:paused" ></path>
<path d="M1318.1775111734062 479.5 L1334.3550223468123 479.5 A15 15 0 0 1 1334.3550223468123 510.5 L1318.1775111734062 510.5 A15 15 0 0 1 1318.1775111734062 479.5" fill="#000" transform="matrix(1,0,0,1,-762.6321411132812,0)" opacity="0.64935" style="transform:matrix(1, 0, 0, 1, -762.632, 0);opacity:0.64935;animation-play-state:paused" ></path>
<path d="M1572 509.5 L627.0989893464533 509.5 A15 15 0 0 0 627.0989893464533 540.5 L1572 540.5" fill="#fff" transform="matrix(1,0,0,1,-37.19315719604492,0)" style="transform:matrix(1, 0, 0, 1, -37.1932, 0);animation-play-state:paused" ></path>
<path d="M718.3576561962155 509.5 L739.0663101288535 509.5 A15 15 0 0 1 739.0663101288535 540.5 L718.3576561962155 540.5 A15 15 0 0 1 718.3576561962155 509.5" fill="#fff" transform="matrix(1,0,0,1,0,0)" opacity="0.974026" style="transform:matrix(1, 0, 0, 1, 0, 0);opacity:0.974026;animation-play-state:paused" ></path>
<path d="M1572 539.5 L652.251926640657 539.5 A15 15 0 0 1 652.251926640657 570.5 L1572 570.5" fill="#fff" transform="matrix(1,0,0,1,28.590110778808594,0)" style="transform:matrix(1, 0, 0, 1, 28.5901, 0);animation-play-state:paused" ></path>
<path d="M1340.7332994525013 539.5 L1379.4665989050027 539.5 A15 15 0 0 1 1379.4665989050027 570.5 L1340.7332994525013 570.5 A15 15 0 0 1 1340.7332994525013 539.5" fill="#000" transform="matrix(1,0,0,1,-1063.01904296875,0)" opacity="0.12987" style="transform:matrix(1, 0, 0, 1, -1063.02, 0);opacity:0.12987;animation-play-state:paused" ></path>
<path d="M1572 569.5 L623.1624800846105 569.5 A15 15 0 0 0 623.1624800846105 600.5 L1572 600.5" fill="#fff" transform="matrix(1,0,0,1,-25.75623321533203,0)" style="transform:matrix(1, 0, 0, 1, -25.7562, 0);animation-play-state:paused" ></path>
<path d="M682.3201279464442 569.5 L708.4465012001478 569.5 A15 15 0 0 1 708.4465012001478 600.5 L682.3201279464442 600.5 A15 15 0 0 1 682.3201279464442 569.5" fill="#fff" transform="matrix(1,0,0,1,0,0)" opacity="0.324675" style="transform:matrix(1, 0, 0, 1, 0, 0);opacity:0.324675;animation-play-state:paused" ></path>
<path d="M1572 599.5 L653.1635464632611 599.5 A15 15 0 0 1 653.1635464632611 630.5 L1572 630.5" fill="#fff" transform="matrix(1,0,0,1,17.646915435791016,0)" style="transform:matrix(1, 0, 0, 1, 17.6469, 0);animation-play-state:paused" ></path>
<path d="M1327.7947480491116 599.5 L1353.5894960982232 599.5 A15 15 0 0 1 1353.5894960982232 630.5 L1327.7947480491116 630.5 A15 15 0 0 1 1327.7947480491116 599.5" fill="#000" transform="matrix(1,0,0,1,-534.93896484375,0)" opacity="0.779221" style="transform:matrix(1, 0, 0, 1, -534.939, 0);opacity:0.779221;animation-play-state:paused" ></path>
<path d="M1572 629.5 L597.4851444833488 629.5 A15 15 0 0 0 597.4851444833488 660.5 L1572 660.5" fill="#fff" transform="matrix(1,0,0,1,-22.059450149536133,0)" style="transform:matrix(1, 0, 0, 1, -22.0595, 0);animation-play-state:paused" ></path>
<path d="M697.3250426963074 629.5 L721.5419559894223 629.5 A15 15 0 0 1 721.5419559894223 660.5 L697.3250426963074 660.5 A15 15 0 0 1 697.3250426963074 629.5" fill="#fff" transform="matrix(1,0,0,1,0,0)" opacity="0.389611" style="transform:matrix(1, 0, 0, 1, 0, 0);opacity:0.389611;animation-play-state:paused" ></path></g></mask></defs>


<rect x="0" y="0" width="1272" height="645" fill="url(#ldbk-photon-axtauo7kx5v-lg)" mask="url(#ldbk-photon-axtauo7kx5v-mask)" style="animation-play-state:paused" ></rect></g></svg>